<svg width="1023" height="814" viewBox="0 0 1023 814" fill="none" xmlns="http://www.w3.org/2000/svg">
<g clip-path="url(#clip0)">
<path opacity="0.1" d="M422.98 137.42C487.7 135.17 549.35 114.28 608.21 91.4195C667.07 68.5595 725.37 43.2295 788.54 31.1195C829.17 23.3295 875.64 22.2295 908.37 44.0095C939.88 65.0095 950.06 101.16 955.53 134.74C959.65 160 962.07 186.58 950.78 210.23C942.95 226.65 929.04 240.45 919.43 256.23C885.96 310.95 909.61 378.43 945.88 431.86C962.88 456.93 982.63 480.86 995.75 507.52C1008.87 534.18 1014.95 564.77 1003.47 591.99C992.08 618.99 964.95 639.23 935.57 653.48C875.88 682.43 805.57 690.71 736.96 695.4C585.13 705.79 432.5 701.29 280.27 696.79C223.93 695.12 167.35 693.43 111.93 684.72C81.1501 679.88 49.3801 672.21 27.0301 653.67C-1.3299 630.14 -8.35992 590.29 10.6401 560.79C42.5301 511.3 130.64 499.01 152.96 445.89C165.22 416.66 152.62 384.1 134.8 356.98C96.5601 298.82 32.4702 247.79 29.0901 181.31C26.7701 135.64 57.5901 89.9195 105.23 68.3095C155.16 45.5795 224.42 48.4595 261.24 85.9495C299.18 124.58 365.84 139.4 422.98 137.42Z" fill="#03A9F4"/>
<path d="M587.39 690.5L929.67 688.83L963.68 609.06L843.42 600.33L864.38 512.87L626.52 482.04L854.29 402.86L834.17 398.08L467.92 457.83L488.09 594.32L516.92 669.33L587.39 690.5Z" fill="#03A9F4"/>
<path d="M924.42 655.42C924.42 655.42 903.42 652.06 890.82 666.9C890.82 666.9 900.06 674.18 919.94 664.1L924.42 655.42Z" fill="#03A9F4"/>
<path d="M926.62 655.09C926.62 655.09 940.02 671.58 933.42 689.94C933.42 689.94 922.5 685.57 921.31 663.31L926.62 655.09Z" fill="#03A9F4"/>
<path d="M938.66 627.98C938.66 627.98 930.26 612.57 896.66 634.14C896.66 634.14 901.14 644.5 915.98 643.66C930.82 642.82 934.74 636.1 938.66 627.98Z" fill="#03A9F4"/>
<path d="M940.83 626.87C940.83 626.87 958.26 624.87 959.95 664.77C959.95 664.77 948.9 667.06 941.05 654.44C933.2 641.82 936.42 634.74 940.83 626.87Z" fill="#03A9F4"/>
<path d="M950.979 595.04C950.979 595.04 941.179 567.88 905.619 587.2C905.619 587.2 913.739 612.12 947.339 604.28L950.979 595.04Z" fill="#03A9F4"/>
<path d="M961.899 554.44C961.899 554.44 943.419 527 910.659 552.44C910.659 552.44 922.139 578.2 959.099 564.2L961.899 554.44Z" fill="#03A9F4"/>
<path d="M965.82 515.8C965.82 515.8 944.26 490.59 911.82 515.8C911.82 515.8 932.26 537.92 965.82 522.24V515.8Z" fill="#03A9F4"/>
<path d="M969.18 478.27C969.18 478.27 947.34 451.95 916.26 476.87C916.26 476.87 940.9 500.11 969.18 484.43V478.27Z" fill="#03A9F4"/>
<path d="M967.22 444.95C967.22 444.95 944.22 411.07 915.14 434.03C915.14 434.03 939.78 463.15 967.22 451.39V444.95Z" fill="#03A9F4"/>
<path d="M961.899 406.03C961.899 406.03 937.539 372.43 909.259 398.19C909.259 398.19 938.099 427.31 961.899 412.19V406.03Z" fill="#03A9F4"/>
<path d="M953.78 371.24C953.78 371.24 924.94 339.66 899.78 352.24C899.78 352.24 929.83 385.78 955.04 379.62L953.78 371.24Z" fill="#03A9F4"/>
<path d="M943.7 338.26C943.7 338.26 910.42 299.58 891.06 312.5C891.06 312.5 915.58 342.5 946.06 345.5L943.7 338.26Z" fill="#03A9F4"/>
<path d="M929.15 300.01C929.15 300.01 900.02 268.43 878.74 276.27C878.74 276.27 903.66 309.03 933.06 309.87L929.15 300.01Z" fill="#03A9F4"/>
<path d="M915.98 264.23C915.98 264.23 883.78 233.99 869.78 239.31C869.78 239.31 893.02 272.91 917.38 270.95L915.98 264.23Z" fill="#03A9F4"/>
<path d="M903.1 231.19C903.1 231.19 875.38 195.06 860.25 197.86C860.25 197.86 877.06 230.07 903.1 234.86V231.19Z" fill="#03A9F4"/>
<path d="M889.12 186.64C889.12 186.64 864.62 158.95 851.38 159.01C851.38 159.01 870.72 196.01 890.13 195.67L889.12 186.64Z" fill="#03A9F4"/>
<path d="M880.84 156.98L857.17 99.2998C857.17 99.2998 855.99 151.44 883.85 167.68L880.84 156.98Z" fill="#03A9F4"/>
<path d="M871.23 93.3703C871.23 93.3703 867.31 45.2003 869.83 41.2803C869.83 41.2803 852.91 81.3303 871.39 114.65L871.23 93.3703Z" fill="#03A9F4"/>
<path d="M951.9 594.4C951.9 594.4 976.44 579.19 992.33 616.4C992.33 616.4 970.49 630.9 949.01 603.89L951.9 594.4Z" fill="#03A9F4"/>
<path d="M962.69 552.89C962.69 552.89 992.79 539.16 1007.39 578.01C1007.39 578.01 984.14 594.01 959.95 562.71L962.69 552.89Z" fill="#03A9F4"/>
<path d="M967.22 518.11C967.22 518.11 988.78 492.9 1021.22 518.11C1021.22 518.11 1000.78 540.23 967.22 524.55V518.11Z" fill="#03A9F4"/>
<path d="M969.92 478.27C969.92 478.27 991.76 451.95 1022.84 476.87C1022.84 476.87 998.2 500.11 969.92 484.43V478.27Z" fill="#03A9F4"/>
<path d="M967.22 445.91C967.22 445.91 982.54 407.96 1015.84 424.28C1015.84 424.28 997.84 457.93 968.58 452.21L967.22 445.91Z" fill="#03A9F4"/>
<path d="M959.97 405.84C959.97 405.84 975.2 367.23 1008.97 385.13C1008.97 385.13 988.29 420.52 961.47 411.8L959.97 405.84Z" fill="#03A9F4"/>
<path d="M950.53 371.43C950.53 371.43 956.53 329.1 984.53 325.31C984.53 325.31 978.59 369.95 954.3 379.06L950.53 371.43Z" fill="#03A9F4"/>
<path d="M942.99 338.34C942.99 338.34 945.329 287.34 968.479 285.56C968.479 285.56 967.699 324.27 945.599 345.56L942.99 338.34Z" fill="#03A9F4"/>
<path d="M926.75 298.58C926.75 298.58 933.65 256.17 955.75 250.99C955.75 250.99 953.01 292.06 928.94 308.99L926.75 298.58Z" fill="#03A9F4"/>
<path d="M913.36 264.58C913.36 264.58 913.59 220.4 927.09 213.91C927.09 213.91 935.46 253.91 917.27 270.22L913.36 264.58Z" fill="#03A9F4"/>
<path d="M902.07 230.69C902.07 230.69 903.96 185.2 917.94 178.79C917.94 178.79 922.72 214.79 904.16 233.67L902.07 230.69Z" fill="#03A9F4"/>
<path d="M887.169 190.27C887.169 190.27 887.249 153.27 897.229 144.59C897.229 144.59 907.149 185.12 892.379 197.71L887.169 190.27Z" fill="#03A9F4"/>
<path d="M882.01 155.16L891.72 93.5801C891.72 93.5801 904.91 144.04 881.55 166.28L882.01 155.16Z" fill="#03A9F4"/>
<path d="M880.119 93.9502C880.119 93.9502 905.039 52.5502 904.529 47.9502C904.529 47.9502 901.879 91.3402 870.529 112.95L880.119 93.9502Z" fill="#03A9F4"/>
<path d="M877.199 81.7202C877.199 81.7202 900.719 22.9202 911.359 18.1602C911.359 18.1602 877.759 35.2402 875.239 80.0402L877.199 81.7202Z" fill="#03A9F4"/>
<path d="M890.249 196.02L891.859 195.53C872.009 130.8 867.059 89.53 877.909 79.18L876.759 77.96C865.249 88.88 869.919 129.7 890.249 196.02Z" fill="#444053"/>
<path d="M944.91 347.58L947.29 346.73C945.18 340.8 942.91 334.78 940.53 328.85C919.81 277.21 902.17 229.17 890.86 192.29L888.79 191.29C900.12 228.24 917.45 278.12 938.19 329.83C940.56 335.65 942.82 341.64 944.91 347.58Z" fill="#444053"/>
<path d="M894.83 703.86C895.15 703.51 927.32 667.28 949.75 605.43C962.893 569.219 970.207 531.153 971.42 492.65C972.96 444.52 962.86 390.78 945.56 341.96L943.68 344.16C982.52 453.73 967.09 547.62 946.62 604.16C924.43 665.45 892.62 701.28 892.31 701.64L894.83 703.86Z" fill="#444053"/>
<path d="M392.109 626.94C392.109 626.94 414.779 654.61 396.779 696.44L577.779 774.94L595.149 778.58L603.149 743.58L597.799 699.41V675.27L392.109 626.94Z" fill="#D5D6DB"/>
<path d="M963.68 609.06L713.16 563.39L381.21 616.27L587.39 690.5L963.68 609.06Z" fill="#03A9F4"/>
<path d="M963.68 609.06L713.16 563.39L381.21 616.27L587.39 690.5L963.68 609.06Z" fill="#03A9F4"/>
<path d="M963.68 609.05C963.68 609.05 987.11 653.44 960.11 694.44L588.61 774.94C588.61 774.94 611.67 739.58 587.42 690.5L963.68 609.05Z" fill="#03A9F4"/>
<path opacity="0.1" d="M963.68 609.05C963.68 609.05 987.11 653.44 960.11 694.44L588.61 774.94C588.61 774.94 611.67 739.58 587.42 690.5L963.68 609.05Z" fill="black"/>
<path opacity="0.1" d="M952.609 624.44C952.609 624.44 965.999 656.92 952.609 677.94V624.44Z" fill="black"/>
<path d="M588.609 774.94L381.209 686.44C381.209 686.44 369.609 688.94 377.109 697.44C384.609 705.94 584.609 783.44 584.609 783.44L960.109 694.44L588.609 774.94Z" fill="#03A9F4"/>
<path opacity="0.1" d="M588.609 774.94L381.209 686.44C381.209 686.44 369.609 688.94 377.109 697.44C384.609 705.94 584.609 783.44 584.609 783.44L960.109 694.44L588.609 774.94Z" fill="black"/>
<path opacity="0.1" d="M605.61 699.44C605.61 699.44 625.61 723.44 605.61 759.44V699.44Z" fill="black"/>
<path opacity="0.1" d="M508.783 699.034L598.492 728.963L598.176 729.912L508.467 699.983L508.783 699.034Z" fill="black"/>
<path opacity="0.1" d="M490.815 696.056L598.521 737.013L598.165 737.947L490.459 696.991L490.815 696.056Z" fill="black"/>
<path opacity="0.1" d="M474.313 695.912L597.919 746.506L597.54 747.432L473.934 696.838L474.313 695.912Z" fill="black"/>
<path opacity="0.1" d="M456.368 691.58L596.477 754.871L596.065 755.782L455.957 692.491L456.368 691.58Z" fill="black"/>
<path opacity="0.1" d="M441.293 691.601L595.367 758.946L594.967 759.863L440.892 692.517L441.293 691.601Z" fill="black"/>
<path opacity="0.1" d="M408.318 686L593.044 765.786L592.647 766.704L407.921 686.919L408.318 686Z" fill="black"/>
<path opacity="0.3" d="M870.609 613.94L694.609 576.94L587.389 597.44L731.609 643.94L870.609 613.94Z" fill="white"/>
<path d="M381.21 616.27C381.21 616.27 372.11 619.94 377.45 625.61C382.79 631.28 587.42 690.5 587.42 690.5L381.21 616.27Z" fill="#03A9F4"/>
<path d="M292.82 530.76C292.82 530.76 315.48 558.42 297.48 600.26L478.48 678.76L495.85 682.42L503.85 647.42L498.42 603.26V579.09L292.82 530.76Z" fill="#D5D6DB"/>
<path d="M864.38 512.87L613.87 467.21L281.91 520.09L488.09 594.32L864.38 512.87Z" fill="#00838F"/>
<path d="M864.419 512.87C864.419 512.87 887.859 557.26 860.859 598.26L489.359 678.76C489.359 678.76 512.409 643.37 488.129 594.31L864.419 512.87Z" fill="#006064"/>
<path opacity="0.1" d="M853.32 528.26C853.32 528.26 866.7 560.73 853.32 581.76V528.26Z" fill="black"/>
<path d="M489.32 678.76L281.91 590.26C281.91 590.26 270.32 592.76 277.82 601.26C285.32 609.76 485.32 687.26 485.32 687.26L860.82 598.26L489.32 678.76Z" fill="#006064"/>
<path opacity="0.1" d="M506.32 603.26C506.32 603.26 526.32 627.26 506.32 663.26V603.26Z" fill="black"/>
<path opacity="0.1" d="M409.485 602.865L499.194 632.794L498.878 633.743L409.169 603.813L409.485 602.865Z" fill="black"/>
<path opacity="0.1" d="M391.504 599.882L499.21 640.838L498.855 641.773L391.149 600.817L391.504 599.882Z" fill="black"/>
<path opacity="0.1" d="M375.017 599.724L498.623 650.318L498.244 651.244L374.638 600.65L375.017 599.724Z" fill="black"/>
<path opacity="0.1" d="M357.061 595.394L497.169 658.685L496.757 659.596L356.649 596.305L357.061 595.394Z" fill="black"/>
<path opacity="0.1" d="M342 595.402L496.074 662.748L495.674 663.664L341.599 596.318L342 595.402Z" fill="black"/>
<path opacity="0.1" d="M309.017 589.802L493.743 669.587L493.347 670.505L308.62 590.72L309.017 589.802Z" fill="black"/>
<path opacity="0.45" d="M771.31 517.76L595.31 480.76L488.09 501.26L632.31 547.76L771.31 517.76Z" fill="white"/>
<path d="M281.91 520.09C281.91 520.09 272.82 523.76 278.15 529.42C283.48 535.08 488.09 594.31 488.09 594.31L281.91 520.09Z" fill="#00838F"/>
<path d="M283.42 420.73C283.42 420.73 306.09 470.4 288.09 512.23L469.09 568.73L486.42 572.4L494.42 537.4L489.07 493.23V469.06L283.42 420.73Z" fill="#D5D6DB"/>
<path d="M854.95 402.85L604.43 357.18L272.47 410.06L478.66 484.29L854.95 402.85Z" fill="#80DEEA"/>
<path d="M854.95 402.84C854.95 402.84 878.42 447.23 851.42 488.23L479.92 568.73C479.92 568.73 502.98 533.34 478.7 484.29L854.95 402.84Z" fill="#00BCD4"/>
<path opacity="0.1" d="M843.88 418.23C843.88 418.23 857.27 450.71 843.88 471.73V418.23Z" fill="black"/>
<path d="M479.88 568.73L272.48 502.23C272.48 502.23 260.88 504.73 268.38 513.23C275.88 521.73 475.88 577.23 475.88 577.23L851.38 488.23L479.88 568.73Z" fill="#00BCD4"/>
<path opacity="0.1" d="M496.88 493.23C496.88 493.23 516.88 517.23 496.88 553.23V493.23Z" fill="black"/>
<path opacity="0.1" d="M400.042 492.833L489.751 522.762L489.434 523.711L399.725 493.782L400.042 492.833Z" fill="black"/>
<path opacity="0.1" d="M382.068 489.855L489.773 530.812L489.418 531.746L381.712 490.79L382.068 489.855Z" fill="black"/>
<path opacity="0.1" d="M365.59 489.703L489.196 540.296L488.817 541.222L365.211 490.628L365.59 489.703Z" fill="black"/>
<path opacity="0.1" d="M347.62 485.363L487.729 548.653L487.317 549.565L347.209 486.274L347.62 485.363Z" fill="black"/>
<path opacity="0.1" d="M332.554 485.381L486.629 552.726L486.228 553.642L332.154 486.297L332.554 485.381Z" fill="black"/>
<path opacity="0.1" d="M299.574 479.787L484.301 559.572L483.904 560.49L299.178 480.705L299.574 479.787Z" fill="black"/>
<path opacity="0.3" d="M761.88 407.73L585.88 370.73L478.66 391.23L622.88 437.73L761.88 407.73Z" fill="white"/>
<path d="M272.48 410.06C272.48 410.06 263.38 413.73 268.72 419.4C274.06 425.07 478.66 484.29 478.66 484.29L272.48 410.06Z" fill="#00BCD4"/>
<path d="M712.42 106.5C712.42 106.5 750.42 104.21 745.98 130.87C745.98 130.87 746.87 135.58 742.6 137.72C742.6 137.72 742.53 135.72 738.7 136.41C737.333 136.645 735.943 136.712 734.56 136.61C732.696 136.483 730.923 135.753 729.51 134.53C729.51 134.53 718.82 130.11 714.66 112.63C714.66 112.63 711.58 108.82 711.66 107.84L718.1 110.58C718.1 110.58 715.91 115.21 717.63 119.06C717.63 119.06 717.84 110.75 719.08 110.94C719.33 110.94 722.41 112.55 722.41 112.55C722.41 112.55 718.64 120.62 721.49 126.48C721.49 126.48 720.41 116.54 723.59 113.13L728.11 115.77C728.11 115.77 723.7 124.1 726.69 130.9C726.69 130.9 725.92 120.47 729.06 116.41L733.16 119.61C733.16 119.61 729.01 127.82 731.54 133.46C731.54 133.46 731.87 121.32 734.04 120.4C734.04 120.4 737.63 123.56 738.17 124.86C738.17 124.86 735.33 130.86 737.1 133.97C737.1 133.97 738.17 125.88 739.1 125.84C739.1 125.84 742.67 131.2 743.04 134.84C742.867 131.447 741.809 128.158 739.97 125.3C742.027 125.69 743.926 126.674 745.43 128.13C745.43 128.13 744.88 124.34 739.08 124.01C739.08 124.01 736.13 119.94 735.34 119.7C735.34 119.7 741.11 119.21 744.6 120.76C744.6 120.76 741.52 117.19 734.29 118.76L730.29 115.46C730.29 115.46 737.87 114.46 741.09 115.57C741.09 115.57 737.38 112.41 729.2 114.71L724.79 112.08C724.79 112.08 731.26 110.69 735.11 111.19C735.11 111.19 731.05 109 723.5 111.37L720.36 109.96C720.36 109.96 725.09 109.03 726.48 108.88C727.87 108.73 727.94 108.35 727.94 108.35C724.938 107.857 721.858 108.203 719.04 109.35C719.04 109.35 712.29 106.92 712.42 106.5Z" fill="#03A9F4"/>
<path opacity="0.1" d="M177.819 216.08C177.819 216.08 215.819 213.79 211.379 240.45C211.379 240.45 212.269 245.16 207.999 247.3C207.999 247.3 207.929 245.3 204.099 245.99C202.732 246.219 201.342 246.286 199.959 246.19C198.112 246.054 196.358 245.324 194.959 244.11C194.959 244.11 184.259 239.69 180.109 222.21C180.109 222.21 177.029 218.4 177.109 217.42L183.529 220.16C183.529 220.16 181.339 224.79 183.059 228.64C183.059 228.64 183.269 220.33 184.499 220.52C184.749 220.52 187.839 222.13 187.839 222.13C187.839 222.13 184.069 230.2 186.909 236.06C186.909 236.06 185.829 226.12 189.019 222.71L193.539 225.35C193.539 225.35 189.129 233.68 192.119 240.48C192.119 240.48 191.349 230.05 194.489 225.99L198.579 229.19C198.579 229.19 194.439 237.4 196.969 243.04C196.969 243.04 197.299 230.9 199.469 229.98C199.469 229.98 203.049 233.14 203.599 234.44C203.599 234.44 200.759 240.44 202.519 243.55C202.519 243.55 203.599 235.46 204.519 235.42C204.519 235.42 208.089 240.78 208.459 244.42C208.286 241.025 207.224 237.735 205.379 234.88C207.44 235.27 209.341 236.254 210.849 237.71C210.849 237.71 210.289 233.92 204.499 233.59C204.499 233.59 201.549 229.52 200.759 229.27C200.759 229.27 206.519 228.79 210.019 230.34C210.019 230.34 206.939 226.77 199.709 228.34L195.709 225.04C195.709 225.04 203.299 224.04 206.509 225.15C206.509 225.15 202.809 221.99 194.619 224.29L190.219 221.66C190.219 221.66 196.689 220.27 200.539 220.77C200.539 220.77 196.479 218.58 188.929 220.95L185.779 219.54C185.779 219.54 190.519 218.61 191.909 218.46C193.299 218.31 193.369 217.93 193.369 217.93C190.367 217.431 187.286 217.777 184.469 218.93C184.469 218.93 177.699 216.5 177.819 216.08Z" fill="#03A9F4"/>
<path opacity="0.1" d="M648.42 271.2C648.42 271.2 664.98 236.87 686.06 253.79C686.06 253.79 690.61 255.31 690.39 260.08C690.39 260.08 688.64 259.17 687.39 262.85C686.923 264.151 686.305 265.393 685.55 266.55C684.527 268.119 683.021 269.312 681.26 269.95C681.26 269.95 672.19 277.13 654.9 272.23C654.9 272.23 650.07 273.06 649.28 272.48L654.8 268.21C654.8 268.21 657.8 272.38 661.98 272.75C661.98 272.75 654.82 268.52 655.59 267.54C655.75 267.34 658.59 265.41 658.59 265.41C658.59 265.41 663.8 272.64 670.3 273.01C670.3 273.01 661.1 269.11 659.68 264.66L664.18 262C664.18 262 669.31 269.92 676.7 270.62C676.7 270.62 667.22 266.21 665.21 261.49L669.99 259.49C669.99 259.49 675.14 267.11 681.3 267.66C681.3 267.66 670.86 261.45 671.12 259.1C671.12 259.1 675.63 257.52 677.03 257.67C677.03 257.67 680.85 263.06 684.45 263.06C684.45 263.06 677.92 258.17 678.32 257.38C678.32 257.38 684.74 256.88 688.12 258.38C685.074 256.866 681.685 256.177 678.29 256.38C679.637 254.774 681.423 253.596 683.43 252.99C683.43 252.99 679.85 251.63 676.74 256.52C676.74 256.52 671.74 257.11 671.15 257.68C671.15 257.68 673.54 252.42 676.59 250.13C676.59 250.13 671.97 251.06 669.86 258.13L665.01 260.05C665.01 260.05 667.8 252.93 670.37 250.68C670.37 250.68 665.81 252.37 663.82 260.68L659.38 263.24C659.38 263.24 661.31 256.91 663.63 253.8C663.63 253.8 659.74 256.28 658.13 264.02L655.36 266.08C655.36 266.08 656.86 261.49 657.36 260.21C657.86 258.93 657.61 258.67 657.61 258.67C655.707 261.044 654.503 263.901 654.13 266.92C654.13 266.92 648.78 271.5 648.42 271.2Z" fill="#03A9F4"/>
<path opacity="0.1" d="M264.64 167.58C264.64 167.58 281.19 133.25 302.28 150.17C302.28 150.17 306.82 151.69 306.61 156.46C306.61 156.46 304.85 155.56 303.61 159.23C303.144 160.536 302.523 161.781 301.76 162.94C300.741 164.506 299.238 165.696 297.48 166.33C297.48 166.33 288.4 173.51 271.12 168.62C271.12 168.62 266.29 169.44 265.49 168.86L270.98 164.58C270.98 164.58 273.98 168.76 278.15 169.13C278.15 169.13 271 164.89 271.77 163.91C271.93 163.71 274.77 161.78 274.77 161.78C274.77 161.78 279.97 169.01 286.48 169.38C286.48 169.38 277.27 165.48 275.85 161.04L280.42 158.4C280.42 158.4 285.54 166.31 292.94 167.02C292.94 167.02 283.46 162.6 281.44 157.88L286.23 155.88C286.23 155.88 291.38 163.51 297.53 164.05C297.53 164.05 287.1 157.84 287.36 155.5C287.36 155.5 291.86 153.91 293.26 154.07C293.26 154.07 297.08 159.45 300.69 159.45C300.69 159.45 294.15 154.56 294.55 153.77C294.55 153.77 300.97 153.27 304.36 154.77C301.315 153.255 297.925 152.566 294.53 152.77C295.872 151.162 297.656 149.984 299.66 149.38C299.66 149.38 296.08 148.02 292.97 152.91C292.97 152.91 287.97 153.51 287.38 154.08C287.38 154.08 289.77 148.81 292.83 146.52C292.83 146.52 288.21 147.46 286.1 154.57L281.24 156.49C281.24 156.49 284.03 149.36 286.6 147.11C286.6 147.11 282.04 148.8 280.06 157.11L275.61 159.67C275.61 159.67 277.55 153.35 279.87 150.23C279.87 150.23 275.97 152.71 274.37 160.45L271.6 162.51C271.6 162.51 273.09 157.92 273.6 156.64C274.11 155.36 273.85 155.11 273.85 155.11C271.953 157.486 270.752 160.342 270.38 163.36C270.38 163.36 264.95 167.9 264.64 167.58Z" fill="#03A9F4"/>
<path opacity="0.1" d="M211.75 337.39C211.75 337.39 228.3 303.05 249.42 319.97C249.42 319.97 253.96 321.49 253.75 326.26C253.75 326.26 251.99 325.36 250.75 329.03C250.287 330.336 249.669 331.581 248.91 332.74C247.89 334.306 246.388 335.496 244.63 336.13C244.63 336.13 235.55 343.32 218.26 338.42C218.26 338.42 213.44 339.25 212.64 338.66L218.16 334.39C218.16 334.39 221.16 338.57 225.34 338.94C225.34 338.94 218.19 334.7 218.96 333.72C219.12 333.52 221.96 331.59 221.96 331.59C221.96 331.59 227.16 338.82 233.67 339.2C233.67 339.2 224.46 335.29 223.04 330.85L227.55 328.19C227.55 328.19 232.67 336.11 240.07 336.81C240.07 336.81 230.59 332.39 228.57 327.67L233.36 325.67C233.36 325.67 238.51 333.29 244.66 333.84C244.66 333.84 234.22 327.63 234.48 325.28C234.48 325.28 238.99 323.69 240.39 323.85C240.39 323.85 244.21 329.23 247.82 329.23C247.82 329.23 241.28 324.34 241.68 323.55C241.68 323.55 248.1 323.05 251.49 324.55C248.44 323.037 245.048 322.347 241.65 322.55C242.994 320.94 244.781 319.761 246.79 319.16C246.79 319.16 243.21 317.79 240.1 322.69C240.1 322.69 235.1 323.28 234.51 323.85C234.51 323.85 236.9 318.59 239.95 316.29C239.95 316.29 235.33 317.23 233.22 324.34L228.37 326.26C228.37 326.26 231.16 319.13 233.73 316.89C233.73 316.89 229.17 318.57 227.19 326.89L222.74 329.44C222.74 329.44 224.68 323.12 227 320C227 320 223.1 322.48 221.49 330.23L218.72 332.23C218.72 332.23 220.22 327.64 220.72 326.36C221.22 325.08 220.97 324.83 220.97 324.83C219.068 327.204 217.867 330.061 217.5 333.08C217.5 333.08 212.06 337.69 211.75 337.39Z" fill="#03A9F4"/>
<path opacity="0.1" d="M820.89 784.16C808.193 784.16 797.9 783.009 797.9 781.59C797.9 780.171 808.193 779.02 820.89 779.02C833.587 779.02 843.88 780.171 843.88 781.59C843.88 783.009 833.587 784.16 820.89 784.16Z" fill="#03A9F4"/>
<path opacity="0.1" d="M971.6 740.48C958.903 740.48 948.61 739.329 948.61 737.91C948.61 736.49 958.903 735.34 971.6 735.34C984.297 735.34 994.59 736.49 994.59 737.91C994.59 739.329 984.297 740.48 971.6 740.48Z" fill="#03A9F4"/>
<path opacity="0.1" d="M706.01 813.17C693.313 813.17 683.02 812.02 683.02 810.6C683.02 809.181 693.313 808.03 706.01 808.03C718.707 808.03 729 809.181 729 810.6C729 812.02 718.707 813.17 706.01 813.17Z" fill="#03A9F4"/>
<path opacity="0.1" d="M117.31 749.98C104.613 749.98 94.3198 748.829 94.3198 747.41C94.3198 745.99 104.613 744.84 117.31 744.84C130.007 744.84 140.3 745.99 140.3 747.41C140.3 748.829 130.007 749.98 117.31 749.98Z" fill="#03A9F4"/>
<path opacity="0.1" d="M308.619 737.51C295.922 737.51 285.629 736.359 285.629 734.94C285.629 733.521 295.922 732.37 308.619 732.37C321.316 732.37 331.609 733.521 331.609 734.94C331.609 736.359 321.316 737.51 308.619 737.51Z" fill="#03A9F4"/>
<path opacity="0.1" d="M432.38 798.33C417.364 798.33 405.19 796.239 405.19 793.66C405.19 791.081 417.364 788.99 432.38 788.99C447.397 788.99 459.57 791.081 459.57 793.66C459.57 796.239 447.397 798.33 432.38 798.33Z" fill="#03A9F4"/>
<path d="M420.25 746.72C420.25 746.72 458.11 766.28 438.55 789.32C438.55 789.32 436.71 794.32 431.39 793.97C431.39 793.97 432.45 792.03 428.39 790.48C426.945 789.922 425.572 789.193 424.3 788.31C422.581 787.122 421.296 785.405 420.64 783.42C420.64 783.42 412.9 773.06 418.9 753.89C418.9 753.89 418.12 748.47 418.8 747.59L423.4 753.9C423.4 753.9 418.65 757.09 418.1 761.78C418.1 761.78 423.1 753.91 424.1 754.78C424.32 754.96 426.38 758.23 426.38 758.23C426.38 758.23 418.14 763.82 417.53 771.08C417.53 771.08 422.17 760.91 427.18 759.46L430.05 764.58C430.05 764.58 421.05 770.06 420.05 778.3C420.05 778.3 425.28 767.85 430.62 765.74L432.73 771.15C432.73 771.15 424.05 776.67 423.25 783.53C423.25 783.53 430.51 772.06 433.12 772.42C433.12 772.42 434.76 777.5 434.54 779.07C434.54 779.07 428.41 783.17 428.3 787.2C428.3 787.2 433.96 780.05 434.83 780.52C434.83 780.52 435.19 787.71 433.45 791.45C433.45 791.45 436.45 786.11 435.96 780.52C437.714 782.071 438.976 784.101 439.59 786.36C439.59 786.36 441.22 782.41 435.85 778.77C435.85 778.77 435.34 773.18 434.72 772.49C434.72 772.49 440.53 775.33 443 778.81C443 778.81 442.09 773.62 434.21 771.04L432.21 765.56C432.21 765.56 440.09 768.9 442.52 771.84C442.52 771.84 440.77 766.69 431.59 764.22L428.87 759.22C428.87 759.22 435.87 761.58 439.29 764.22C439.29 764.22 436.64 759.79 428.03 757.75L425.82 754.6C425.82 754.6 430.9 756.41 432.32 757.06C433.74 757.71 434.02 757.39 434.02 757.39C431.424 755.195 428.271 753.762 424.91 753.25C424.91 753.25 419.9 747.06 420.25 746.72Z" fill="#03A9F4"/>
<path d="M307.88 377.29C314.42 359.52 350.419 357.85 366.039 362.38C377.139 365.61 400.539 369.25 413.039 371.08L413.849 370.31C412.229 369.83 412.189 368.65 412.389 366.9C412.506 364.594 412.473 362.282 412.289 359.98C404.629 362.36 397.81 356.73 397.81 356.73C388.81 352.73 391.23 335.61 389.51 330.93C388.22 327.43 386.829 306.81 386.209 296.53H386.079L386.01 293.08C385.92 291.59 385.88 290.72 385.88 290.72C385.88 290.72 384.999 265.58 383.279 260.49C381.679 255.81 380.38 232.23 380.18 228.49C380.18 228.17 380.18 228 380.18 228L380.31 225.82C380.22 224.23 380.18 222.46 380.19 220.6C380.19 212.05 381.08 201.28 381.19 199.54C381.19 199.29 381.19 198.99 381.19 198.63C381.12 194.98 381.58 176.7 397.13 169.79C402.86 167.23 409.749 164.18 416.419 161.21C418.139 146.36 422.069 131.59 421.729 116.63C421.729 114.38 421.53 112.13 421.31 109.89C421.31 110.54 421.379 111.2 421.389 111.89C421.389 113.34 421.389 114.8 421.389 116.25C420.799 97.5403 413.729 78.7303 414.389 60.4203C414.449 62.2103 414.58 64.0103 414.75 65.8103C414.404 59.6171 415.052 53.4086 416.669 47.4203C417.27 45.3103 418.08 43.1303 419.81 41.7203C421.445 40.5847 423.32 39.8421 425.289 39.5503C430.021 38.339 434.829 37.4437 439.68 36.8703C440.417 34.614 441.51 32.4904 442.919 30.5803C453.059 16.6603 468.079 3.58028 485.839 0.580276C494.749 -0.919724 505 0.330276 511.06 6.70028C511.692 7.25986 512.287 7.86121 512.839 8.50027C516.099 12.3903 517.499 17.5003 520.839 21.3803C521.059 21.6403 521.31 21.8803 521.549 22.1303C528.09 27.9803 538.28 29.2003 545.549 34.4503C546.831 35.3927 548.031 36.4396 549.139 37.5803C552.069 40.4832 554.696 43.6763 556.979 47.1103C560.249 51.7103 563.609 56.5003 564.649 61.9903C566.739 72.9903 559.249 83.4203 557.859 94.4903C554.759 119.26 582.169 141.24 576.979 165.68C575.595 171.684 572.536 177.173 568.159 181.51C578.849 191.19 587.95 200.58 587.95 200.58V201.14H589.639L589.469 203.14H589.639L588.709 213.99L589.639 229.79C589.639 229.79 589.639 229.96 589.639 230.28V230.36V230.79C589.639 230.79 589.639 230.96 589.639 231.28H589.579C589.269 237.07 588.039 257.89 586.579 262.28C584.859 267.37 583.99 292.51 583.99 292.51C583.99 292.51 582.089 328.04 580.349 332.74C578.609 337.44 581.079 354.51 572.049 358.54C569.408 360.567 566.28 361.863 562.979 362.3C563.439 366.04 563.149 368.75 561.659 369.6C561.022 369.975 560.299 370.182 559.56 370.2C560.172 371.109 560.717 372.061 561.19 373.05C564.774 372.676 568.295 371.846 571.669 370.58C581.369 366.58 613.559 357.58 622.909 363.91C632.259 370.24 654.76 375.98 644.37 401.46C633.98 426.94 629.139 427.58 629.139 427.58C625.941 429.902 623.136 432.721 620.83 435.93C617.71 440.62 588.64 451.35 581.37 451.35C578.279 451.303 575.19 451.456 572.12 451.81C572.12 451.81 580.009 458.73 578.959 462.75C577.909 466.77 581.359 498.95 581.359 498.95C581.359 498.95 573.36 507.01 569.94 496.44L569.82 496.6C569.18 497.47 565.719 501.4 559.209 496.44C556.545 494.419 553.715 492.626 550.75 491.08L519.229 486.62C515.943 486.415 512.648 486.391 509.359 486.55C504.359 486.96 499.449 484 496.359 481.71C489.829 484.19 482.49 486.9 479 487.89C471.92 489.89 439.379 498.62 431.769 495.89C430.188 495.261 428.781 494.26 427.669 492.97L420.409 493.2L423.81 493.88C423.81 493.88 417.19 493.99 408.19 494.11L408.57 494.33L397.279 494.23C380.759 494.38 362.2 494.43 359.76 493.88C355.94 493.03 336.09 493.63 330.24 493.88H328.609C328.609 493.88 306.799 489.53 315.799 467.4C322.72 450.4 343.99 445.46 353.43 444.1C350.77 443.57 348.479 443.16 346.959 442.92C340.369 441.92 327.569 435.92 326.529 433.87C325.489 431.82 314.759 425.87 311.99 422.48C309.22 419.09 301.31 395.06 307.88 377.29ZM488.529 427.02L489.599 427.37L490.32 427.61L491.7 428.97C492.8 428.23 493.979 427.45 495.209 426.65C493.039 426.78 490.809 426.91 488.529 427.02Z" fill="url(#paint0_linear)"/>
<path d="M424.77 321.58C424.77 321.58 409.47 361.58 400.77 357.58C392.07 353.58 394.43 336.58 392.77 331.92C391.11 327.26 389.27 291.92 389.27 291.92C389.27 291.92 388.43 266.92 386.77 261.86C385.23 257.21 383.98 233.76 383.77 230.07C383.77 229.75 383.77 229.58 383.77 229.58L385.42 200.58L394.76 198.25L416.42 206.25L419.42 223.38L420.59 230.07L421.09 232.92L424.77 321.58Z" fill="#BE6F72"/>
<path opacity="0.1" d="M419.729 314.88C419.729 314.88 405.129 326.83 400.729 327.88C396.329 328.93 393.63 338.25 393.63 338.25" fill="black"/>
<path d="M544.42 323.33C544.42 323.33 559.72 363.33 568.42 359.33C577.12 355.33 574.76 338.33 576.42 333.67C578.08 329.01 579.92 293.67 579.92 293.67C579.92 293.67 580.76 268.67 582.42 263.61C583.96 258.96 585.21 235.51 585.42 231.82C585.42 231.5 585.42 231.33 585.42 231.33L583.76 202.33L574.42 200L552.76 208L549.76 225.13L548.59 231.82L548.09 234.67L544.42 323.33Z" fill="#BE6F72"/>
<path d="M444.789 109.27H478.939V162.5H444.789V109.27Z" fill="#3E373A"/>
<path opacity="0.1" d="M444.789 109.27H478.939V162.5H444.789V109.27Z" fill="black"/>
<path d="M550.42 363.17C550.42 363.17 562.09 376 557.76 378.33C553.43 380.66 525.42 424.33 525.42 424.33C525.42 424.33 433.42 435.66 416.07 418.66C398.72 401.66 399.07 371.29 399.07 371.29C399.07 371.29 413.01 374.29 414.53 372.66C416.05 371.03 424.4 363.17 424.4 363.17C424.4 363.17 542.42 356.01 550.42 363.17Z" fill="#4B4B5B"/>
<path opacity="0.02" d="M550.42 363.17C550.42 363.17 562.09 376 557.76 378.33C553.43 380.66 525.42 424.33 525.42 424.33C525.42 424.33 433.42 435.66 416.07 418.66C398.72 401.66 399.07 371.29 399.07 371.29C399.07 371.29 413.01 374.29 414.53 372.66C416.05 371.03 424.4 363.17 424.4 363.17C424.4 363.17 542.42 356.01 550.42 363.17Z" fill="black"/>
<path d="M384.8 201L414.8 225L423.87 225.66L427.2 225.9L483.13 230L541.13 225.76L549.76 225.13L560.76 224.33L583.76 202.33C583.76 202.33 567.48 184.89 553.22 173.12C547.6 168.47 542.29 164.71 538.42 163.23L537.76 163C535.326 162.051 533.152 160.536 531.42 158.58C520.16 146.97 509.75 118.32 509.75 118.32C509.75 118.32 460.08 92.6602 466.08 126.32C472.08 159.98 443.75 151.66 443.75 151.66L434.41 155.92L430.72 157.61L421.31 161.92L400.08 171.66C383.42 179.33 384.8 201 384.8 201Z" fill="#BE6F72"/>
<path opacity="0.1" d="M485.46 145.73C460.789 145.73 440.79 125.73 440.79 101.06C440.79 76.3891 460.789 56.3896 485.46 56.3896C510.13 56.3896 530.13 76.3891 530.13 101.06C530.13 125.73 510.13 145.73 485.46 145.73Z" fill="black"/>
<path opacity="0.1" d="M384.73 232.82H585.42C585.42 232.5 585.42 232.33 585.42 232.33L583.76 203.33C583.76 203.33 567.48 185.89 553.22 174.12L427.22 169.12L421.36 162.94L400.13 172.68C383.46 180.34 384.8 202.01 384.8 202.01C384.8 202.01 382.52 227.12 384.73 232.82Z" fill="black"/>
<path d="M384.73 231.82H585.42C585.42 231.5 585.42 231.33 585.42 231.33L583.76 202.33C583.76 202.33 567.48 184.89 553.22 173.12L427.22 168.12L421.36 161.94L400.13 171.68C383.46 179.34 384.8 201.01 384.8 201.01C384.8 201.01 382.52 226.12 384.73 231.82Z" fill="#E7C7CA"/>
<path opacity="0.1" d="M517.63 150.5C517.63 150.5 485.97 190.84 443.8 149.67C401.63 108.5 439.13 241.5 439.13 241.5L530.13 252.3L517.63 150.5Z" fill="black"/>
<path d="M517.63 152.5C517.63 152.5 485.97 192.84 443.8 151.67C401.63 110.5 439.13 243.5 439.13 243.5L530.13 254.3L517.63 152.5Z" fill="#E7C7CA"/>
<path opacity="0.1" d="M430.77 159.58L427.42 210.67L423.83 227.67L421.09 240.67C421.09 240.67 414.09 340.67 416.09 345.67C418.09 350.67 415.09 354.67 414.67 357.33C414.25 359.99 415.09 366.67 414.76 369.67C414.43 372.67 414.76 374 422.42 372.93C430.08 371.86 440.76 370 440.76 370C440.76 370 467.76 372 477.09 368.67C486.42 365.34 504.09 365.33 504.09 365.33C504.09 365.33 530.76 366 539.42 365C548.08 364 552.76 375.67 558.42 372.33C564.08 368.99 551.76 336.67 547.76 327.33C543.76 317.99 553.09 294.33 553.09 294.33L541.09 227.76L538.42 212.67V165.23L537.76 165C535.325 164.05 533.152 162.535 531.42 160.58L528.42 208.32L434.42 211.66V157.93" fill="black"/>
<path d="M430.77 157.58L427.42 208.67L423.83 225.67L421.09 238.67C421.09 238.67 414.09 338.67 416.09 343.67C418.09 348.67 415.09 352.67 414.67 355.33C414.25 357.99 415.09 364.67 414.76 367.67C414.43 370.67 414.76 372 422.42 370.93C430.08 369.86 440.76 368 440.76 368C440.76 368 467.76 370 477.09 366.67C486.42 363.34 504.09 363.33 504.09 363.33C504.09 363.33 530.76 364 539.42 363C548.08 362 552.76 373.67 558.42 370.33C564.08 366.99 551.76 334.67 547.76 325.33C543.76 315.99 553.09 292.33 553.09 292.33L541.09 225.76L538.42 210.67V163.23L537.76 163C535.325 162.05 533.152 160.535 531.42 158.58L528.42 206.32L434.42 209.66V155.93" fill="#E7C7CA"/>
<path opacity="0.1" d="M419.959 50.9604C420.529 48.8704 421.319 46.7004 422.959 45.3004C424.525 44.1759 426.334 43.4359 428.239 43.1404C432.801 41.941 437.438 41.0523 442.119 40.4804C442.788 38.2599 443.801 36.1578 445.119 34.2504C454.919 20.4104 469.419 7.36041 486.479 4.41041C495.409 2.86041 505.759 4.25041 511.479 11.2904C514.619 15.1604 515.969 20.2904 519.139 24.0904C525.249 31.4704 536.279 32.3804 543.979 38.0904C548.089 41.0904 551.069 45.4404 553.979 49.6604C557.129 54.2304 560.369 58.9904 561.369 64.4504C563.369 75.3604 556.159 85.7604 554.829 96.7704C551.829 121.4 578.229 143.25 573.239 167.55C570.329 181.72 557.24 191.7 543.7 196.76C538.93 198.55 533.479 200.33 531.25 204.91C530.25 206.91 530.079 209.22 529.139 211.24C525.979 217.98 515.59 218.24 510.01 213.33C504.43 208.42 502.67 200.48 502.01 193.07C499.33 160.71 512.289 128.74 510.779 96.3004C510.329 86.4904 507.569 75.3604 498.779 70.9204C486.949 64.9204 472.72 74.9204 459.7 73.0104C453.538 88.0018 452.23 104.547 455.959 120.32C458.029 128.95 461.609 137.32 461.869 146.22C462.259 159.77 454.95 172.15 448.63 184.13C447.273 186.371 446.366 188.854 445.959 191.44C445.86 194.065 446.349 196.679 447.389 199.09C450.959 208.7 457.12 217.62 457.82 227.85C458.025 229.045 457.756 230.272 457.07 231.27C456.365 231.937 455.456 232.346 454.489 232.43C443.689 234.28 434.349 224.71 429.079 215.1C423.204 204.486 419.78 192.691 419.059 180.58C417.969 160.22 425.27 140.19 424.82 119.81C424.299 96.6404 413.829 73.3104 419.959 50.9604Z" fill="black"/>
<path d="M418.959 49.9604C419.529 47.8704 420.319 45.7004 421.959 44.3004C423.525 43.1759 425.334 42.4359 427.239 42.1404C431.801 40.941 436.438 40.0523 441.119 39.4804C441.788 37.2599 442.801 35.1578 444.119 33.2504C453.919 19.4104 468.419 6.36041 485.479 3.41041C494.409 1.86041 504.759 3.25041 510.479 10.2904C513.619 14.1604 514.969 19.2904 518.139 23.0904C524.249 30.4704 535.279 31.3804 542.979 37.0904C547.089 40.0904 550.069 44.4404 552.979 48.6604C556.129 53.2304 559.369 57.9904 560.369 63.4504C562.369 74.3604 555.159 84.7604 553.829 95.7704C550.829 120.4 577.229 142.25 572.239 166.55C569.329 180.72 556.24 190.7 542.7 195.76C537.93 197.55 532.479 199.33 530.25 203.91C529.25 205.91 529.079 208.22 528.139 210.24C524.979 216.98 514.59 217.24 509.01 212.33C503.43 207.42 501.67 199.48 501.01 192.07C498.33 159.71 511.289 127.74 509.779 95.3004C509.329 85.4904 506.569 74.3604 497.779 69.9204C485.949 63.9204 471.72 73.9204 458.7 72.0104C452.538 87.0018 451.23 103.547 454.959 119.32C457.029 127.95 460.609 136.32 460.869 145.22C461.259 158.77 453.95 171.15 447.63 183.13C446.273 185.371 445.366 187.854 444.959 190.44C444.86 193.065 445.349 195.679 446.389 198.09C449.959 207.7 456.12 216.62 456.82 226.85C457.025 228.045 456.756 229.272 456.07 230.27C455.365 230.937 454.456 231.346 453.489 231.43C442.689 233.28 433.349 223.71 428.079 214.1C422.204 203.486 418.78 191.691 418.059 179.58C416.969 159.22 424.27 139.19 423.82 118.81C423.299 95.6404 412.829 72.3104 418.959 49.9604Z" fill="#3E373A"/>
<path d="M441.05 492.73L401.38 494L407.07 464.58L437.46 467.47L441.05 492.73Z" fill="#C3C7D9"/>
<path d="M318.13 423C320.8 426.33 331.13 432.33 332.13 434.33C333.13 436.33 345.46 442.33 351.8 443.33C358.14 444.33 378.13 448.67 381.8 451C384.43 452.68 405.54 458 419.41 460.95C423.167 461.839 426.969 462.523 430.8 463C436.8 463.33 502.46 441 502.46 441L489.8 428L489.1 427.76C485.52 426.55 468.98 420.96 459.8 418.3C449.46 415.3 437.46 402.97 437.46 402.97C437.46 402.97 419.8 396.97 417.46 396.3C415.12 395.63 423.46 372.97 423.46 372.97C423.46 372.97 385.13 367.65 370.13 363.14C355.13 358.63 320.46 360.3 314.13 377.97C307.8 395.64 315.42 419.67 318.13 423Z" fill="#4B4B5B"/>
<path d="M492.8 479.33C492.8 479.33 500.46 487.33 508.13 486.67C515.8 486.01 542.62 488.67 542.62 488.67C547.48 490.609 552.032 493.246 556.13 496.5C562.4 501.44 565.73 497.5 566.35 496.66L566.46 496.5C569.8 507.01 577.46 499 577.46 499C577.46 499 574.13 467 575.15 463C576.17 459 568.56 452.13 568.56 452.13L559.56 449.84L536.76 444L504.09 455.33L492.8 479.33Z" fill="#E7C7CA"/>
<path opacity="0.1" d="M559.6 449.84L566.35 496.66L566.46 496.5C569.8 507.01 577.46 499 577.46 499C577.46 499 574.13 467 575.15 463C576.17 459 568.56 452.13 568.56 452.13L559.6 449.84Z" fill="black"/>
<path opacity="0.1" d="M512.42 316.66C512.42 316.66 494.76 322.66 479.42 316.66H512.42Z" fill="black"/>
<path opacity="0.1" d="M452.13 328C452.13 328 444.8 331.66 439.13 328H452.13Z" fill="black"/>
<path opacity="0.1" d="M452.13 336.68C452.13 336.68 439.8 338.33 437.46 335L452.13 336.68Z" fill="black"/>
<path opacity="0.1" d="M456.13 355.33C456.13 355.33 432.97 352.33 427.22 348.33L456.13 355.33Z" fill="black"/>
<path opacity="0.1" d="M526.8 348.33C526.8 348.33 513.8 355.66 504.13 355.33L526.8 348.33Z" fill="black"/>
<path opacity="0.1" d="M419.42 460.95C423.177 461.839 426.979 462.523 430.81 463C436.81 463.33 502.47 441 502.47 441L489.81 428L489.11 427.76C487.11 429.17 485.47 430.38 484.3 431.3C478.79 435.64 473.47 429.97 471.47 429.97C469.47 429.97 452.14 444.3 452.14 444.3C452.14 444.3 436.14 447.97 433.47 451.3C430.8 454.63 421.47 453.97 419.81 456.3C419.31 457.02 419.25 458.79 419.42 460.95Z" fill="black"/>
<path d="M542.62 374.33C542.62 374.33 558.8 375.26 568.13 371.33C577.46 367.4 608.46 358.33 617.46 364.7C626.46 371.07 648.13 376.7 638.13 402.04C628.13 427.38 623.46 428.04 623.46 428.04C620.366 430.36 617.665 433.163 615.46 436.34C612.46 441.01 584.46 451.67 577.46 451.67C570.46 451.67 558.13 451.67 540.8 463.67C523.47 475.67 507.8 477.01 507.8 477.01C507.8 477.01 485.8 486.01 478.95 488.01C472.1 490.01 440.8 498.67 433.46 496.01C426.12 493.35 421.46 476.67 421.46 476.67C421.46 476.67 418.13 461.67 419.8 459.34C421.47 457.01 430.8 457.67 433.46 454.34C436.12 451.01 452.13 447.34 452.13 447.34C452.13 447.34 469.42 433 471.42 433C473.42 433 478.74 438.66 484.25 434.33C495.226 426.2 506.757 418.849 518.76 412.33C531.42 405.66 542.62 374.33 542.62 374.33Z" fill="#4B4B5B"/>
<path opacity="0.1" d="M575.149 384C572.269 383.411 569.291 383.496 566.448 384.247C563.605 384.998 560.974 386.395 558.759 388.33C550.759 395 523.839 408.39 523.839 408.39" fill="black"/>
<path opacity="0.1" d="M375.13 383.58C375.13 383.58 410.8 388.98 417.46 396.31L375.13 383.58Z" fill="black"/>
<path d="M334.13 494H335.7C341.34 493.8 360.45 493.2 364.13 494C368.46 495 425.8 494 425.8 494L414.59 491.67C414.59 491.67 418.75 477.09 416.11 475.88C416.11 475.88 431.11 466 419.8 459.33C408.49 452.66 396.3 455.47 396.3 455.47L367.91 445.85L362.46 444C362.46 444 330.46 445.67 321.8 467.67C313.14 489.67 334.13 494 334.13 494Z" fill="#E7C7CA"/>
<path opacity="0.1" d="M334.13 494H335.7C326.39 486.32 305.33 462.94 367.91 445.9L362.46 444.05C362.46 444.05 330.46 445.72 321.8 467.72C313.14 489.72 334.13 494 334.13 494Z" fill="black"/>
<path d="M392.96 468.08C391.993 468.08 391.21 467.297 391.21 466.33C391.21 465.364 391.993 464.58 392.96 464.58C393.926 464.58 394.71 465.364 394.71 466.33C394.71 467.297 393.926 468.08 392.96 468.08Z" fill="#4B4B5B"/>
<path d="M403.13 470.97C402.163 470.97 401.38 470.187 401.38 469.22C401.38 468.254 402.163 467.47 403.13 467.47C404.096 467.47 404.88 468.254 404.88 469.22C404.88 470.187 404.096 470.97 403.13 470.97Z" fill="#4B4B5B"/>
<g opacity="0.1">
<path opacity="0.1" d="M452.68 99.4098C452.292 88.4106 454.249 77.4548 458.42 67.2698C471.42 69.2098 485.66 59.1798 497.5 65.1798C506.26 69.6198 509.01 80.7498 509.5 90.5598C509.62 93.1498 509.64 95.7398 509.59 98.3298C509.59 97.4098 509.59 96.4798 509.5 95.5598C509.04 85.7498 506.29 74.6198 497.5 70.1798C485.66 64.1798 471.44 74.1798 458.42 72.2698C454.887 80.8969 452.943 90.0912 452.68 99.4098Z" fill="black"/>
<path opacity="0.1" d="M553.419 97.58C553.248 95.401 553.292 93.2105 553.549 91.04C554.609 82.24 559.419 73.83 560.289 65.25C561.409 75.6 554.819 85.54 553.549 96.04C553.419 96.58 553.419 97.06 553.419 97.58Z" fill="black"/>
<path opacity="0.1" d="M500.73 187.319C501.35 194.739 503.1 202.669 508.73 207.589C514.36 212.509 524.73 212.239 527.86 205.499C528.86 203.499 529.01 201.169 529.98 199.169C532.2 194.589 537.66 192.809 542.43 191.019C555.98 185.949 569.05 176.019 571.96 161.809C572.22 160.522 572.397 159.219 572.49 157.909C572.736 160.886 572.557 163.883 571.96 166.809C569.05 180.979 555.96 190.949 542.43 196.019C537.66 197.809 532.2 199.589 529.98 204.169C528.98 206.169 528.81 208.479 527.86 210.499C524.71 217.239 514.32 217.499 508.73 212.589C503.14 207.679 501.4 199.739 500.73 192.319C500.425 188.414 500.322 184.495 500.42 180.579C500.42 182.849 500.55 185.089 500.73 187.319Z" fill="black"/>
<path opacity="0.1" d="M423.489 114.07C423.489 115.52 423.489 116.96 423.489 118.4C422.929 99.7997 416.109 81.0996 416.779 62.8896C417.299 79.7296 423.109 96.9497 423.489 114.07Z" fill="black"/>
<path opacity="0.1" d="M444.95 189.31C444.704 188.123 444.627 186.908 444.72 185.7C445.123 183.112 446.03 180.628 447.39 178.39C453.17 167.39 459.76 156.13 460.54 143.92C460.54 144.44 460.61 144.92 460.62 145.48C461.02 159.02 453.71 171.41 447.39 183.39C446.316 185.245 445.495 187.236 444.95 189.31Z" fill="black"/>
<path opacity="0.1" d="M417.74 174.84C418.486 186.955 421.934 198.75 427.83 209.36C433.11 218.97 442.44 228.54 453.25 226.69C454.218 226.606 455.129 226.193 455.83 225.52C456.033 225.291 456.192 225.026 456.3 224.74C456.42 225.52 456.52 226.31 456.58 227.11C456.786 228.301 456.517 229.525 455.83 230.52C455.129 231.193 454.218 231.606 453.25 231.69C442.44 233.54 433.11 223.97 427.83 214.36C421.934 203.75 418.486 191.955 417.74 179.84C417.62 177.5 417.61 175.17 417.68 172.84C417.7 173.51 417.7 174.17 417.74 174.84Z" fill="black"/>
</g>
<path opacity="0.1" d="M416.109 475.88C416.109 475.88 390.799 486.5 374.109 463" stroke="black" stroke-miterlimit="10"/>
<path opacity="0.1" d="M411.13 494.44C411.13 494.44 390.46 481 364.13 494" stroke="black" stroke-miterlimit="10"/>
<path opacity="0.1" d="M549.49 491.39C549.49 491.39 540.81 471.81 517.63 486.74" stroke="black" stroke-miterlimit="10"/>
<path opacity="0.1" d="M577.63 201.83L559.93 185.83C559.93 185.83 491.3 181.33 488.46 204.66C488.46 204.66 464.13 177 412.96 183.16L391.31 200.4L451.15 226.66L509.3 246.83L552.13 227.66L577.63 201.83Z" fill="black"/>
<path d="M577.63 202.83L559.93 186.83C559.93 186.83 491.3 182.33 488.46 205.66C488.46 205.66 464.13 178 412.96 184.16L391.31 201.4L451.15 227.66L509.3 247.83L552.13 228.66L577.63 202.83Z" fill="#D5D6DB"/>
<path opacity="0.1" d="M585.46 204.83L577.63 298.5L494.63 302.67L498.23 209.4L498.3 207.83L585.46 204.83Z" fill="black"/>
<path d="M585.46 202.83L577.63 296.5L494.63 300.67L498.23 207.4L498.3 205.83L585.46 202.83Z" fill="#03A9F4"/>
<path opacity="0.1" d="M387.51 202.83L473.13 215.67V309.76L389.46 297.67L387.51 202.83Z" fill="black"/>
<path d="M387.51 200.83L473.13 213.67V307.76L389.46 295.67L387.51 200.83Z" fill="#03A9F4"/>
<path opacity="0.3" d="M407.7 223.79L453.95 228.93L452.94 244.69L407.73 239.75L407.7 223.79Z" fill="#B2EBF2"/>
<path d="M573.13 346.66L568.42 359.33C568.42 359.33 561.42 365.33 553.76 362.33C546.1 359.33 539.42 357.84 536.09 354.92C532.76 352 528.09 337.33 528.09 337.33C528.09 337.33 523.42 321.33 518.76 317.33C514.1 313.33 501.76 258.22 518.76 263.61C535.76 269 548.76 319 548.76 319C548.76 319 551.76 322.66 556.09 323C560.42 323.34 569.09 322.33 570.76 326C572.43 329.67 578.13 339.33 573.13 346.66Z" fill="#BE6F72"/>
<path opacity="0.1" d="M473.13 215.66C477.514 216.648 482.068 216.596 486.428 215.509C490.788 214.422 494.833 212.33 498.24 209.4L494.63 302.66C494.63 302.66 486.13 311.86 473.13 309.76V215.66Z" fill="black"/>
<path d="M473.13 213.66C477.514 214.648 482.068 214.596 486.428 213.509C490.788 212.422 494.833 210.33 498.24 207.4L494.63 300.66C494.63 300.66 486.13 309.86 473.13 307.76V213.66Z" fill="#03A9F4"/>
<path opacity="0.1" d="M473.13 213.66C477.514 214.648 482.068 214.596 486.428 213.509C490.788 212.422 494.833 210.33 498.24 207.4L494.63 300.66C494.63 300.66 486.13 309.86 473.13 307.76V213.66Z" fill="black"/>
<path opacity="0.1" d="M471.13 203.15C471.13 203.15 436.3 192.5 427.22 194L471.13 203.15Z" fill="black"/>
<path opacity="0.1" d="M510.09 198.5C510.09 198.5 543.85 190.5 549.49 192.77L510.09 198.5Z" fill="black"/>
<path opacity="0.1" d="M449.17 204.48C449.17 204.48 425.88 195.94 417.46 200L449.17 204.48Z" fill="black"/>
<path opacity="0.1" d="M460.899 418.71C457.29 416 453.449 413.614 449.419 411.58C443.419 408.69 432.419 401.19 432.419 401.19" fill="black"/>
<path opacity="0.1" d="M549.49 316.66C549.49 316.66 564.1 328.61 568.49 329.66C572.88 330.71 575.59 340.03 575.59 340.03" fill="black"/>
<path d="M396.1 344.88L400.76 357.58C400.76 357.58 407.76 363.58 415.43 360.58C423.1 357.58 429.76 356.09 433.1 353.17C436.44 350.25 441.1 335.58 441.1 335.58C441.1 335.58 445.76 319.58 450.43 315.58C455.1 311.58 467.43 256.47 450.43 261.86C433.43 267.25 420.43 317.25 420.43 317.25C420.43 317.25 417.43 320.91 413.1 321.25C408.77 321.59 400.1 320.58 398.43 324.25C396.76 327.92 391.1 337.58 396.1 344.88Z" fill="#BE6F72"/>
<path opacity="0.1" d="M404.27 321.52C404.27 321.52 394.72 327.66 394.76 335L404.27 321.52Z" fill="black"/>
<path d="M485.3 143.54C460.629 143.54 440.63 123.541 440.63 98.8702C440.63 74.1996 460.629 54.2002 485.3 54.2002C509.97 54.2002 529.97 74.1996 529.97 98.8702C529.97 123.541 509.97 143.54 485.3 143.54Z" fill="#BE6F72"/>
<path d="M513.35 86.88C507.93 86.03 503.18 82.88 498 81.07C486.41 77 473.59 79.79 461.86 83.46C457.36 84.87 452.79 86.46 448.07 86.46C443.35 86.46 438.34 84.53 435.93 80.46C433.71 76.72 434.14 71.86 436.01 67.93C437.88 64 441.01 60.84 444.17 57.86C454.57 48.04 467.47 38.86 481.74 39.86C487.48 40.27 492.97 42.32 498.25 44.59C504.898 47.455 511.37 50.7141 517.63 54.35C522.44 57.14 531.35 60.87 534.12 65.97C540.42 77.46 523.15 88.42 513.35 86.88Z" fill="#3E373A"/>
<path opacity="0.1" d="M435.93 76.2598C438.34 80.3298 443.35 82.2598 448.07 82.2598C452.79 82.2598 457.36 80.7298 461.87 79.3198C473.6 75.6498 486.41 72.8498 498.01 76.9298C503.18 78.7398 507.94 81.9298 513.36 82.7298C521.26 83.9698 533.98 77.0898 535.36 68.3398C536.91 78.4498 522.16 87.1098 513.36 85.7298C507.94 84.8798 503.18 81.7298 498.01 79.9298C486.41 75.8498 473.6 78.6498 461.87 82.3198C457.36 83.7298 452.8 85.3198 448.07 85.2598C443.34 85.1998 438.34 83.3398 435.93 79.2598C434.68 77.0403 434.189 74.4739 434.53 71.9498C434.686 73.4695 435.163 74.9386 435.93 76.2598Z" fill="black"/>
<path d="M73.4196 618.21C73.4196 618.21 67.4896 625.96 76.1596 637.67C84.8296 649.38 91.9696 659.26 89.0896 666.56C89.0896 666.56 76.0096 644.82 65.3696 644.51C54.7296 644.2 61.7296 631.28 73.4196 618.21Z" fill="#03A9F4"/>
<path opacity="0.1" d="M73.4194 618.21C72.903 618.959 72.4957 619.777 72.2095 620.64C61.8295 632.84 56.2894 644.23 66.2794 644.51C75.5794 644.78 86.7294 661.41 89.3994 665.6C89.314 665.939 89.2105 666.272 89.0894 666.6C89.0894 666.6 76.0094 644.86 65.3694 644.55C54.7294 644.24 61.7294 631.28 73.4194 618.21Z" fill="black"/>
<path d="M62.42 628.09C62.42 630.82 62.7301 633.03 63.1001 633.03C63.4701 633.03 63.79 630.82 63.79 628.09C63.79 625.36 63.41 626.65 63.03 626.65C62.65 626.65 62.42 625.36 62.42 628.09Z" fill="#FFD037"/>
<path d="M58.6302 631.35C61.0202 632.65 63.1103 633.44 63.2903 633.11C63.4703 632.78 61.6803 631.45 59.2903 630.11C56.9003 628.77 57.8403 629.75 57.6603 630.11C57.4803 630.47 56.2302 630.04 58.6302 631.35Z" fill="#FFD037"/>
<path d="M104.76 618.21C104.76 618.21 110.689 625.96 102.019 637.67C93.3495 649.38 86.2095 659.26 89.0995 666.56C89.0995 666.56 102.17 644.82 112.82 644.51C123.47 644.2 116.42 631.28 104.76 618.21Z" fill="#03A9F4"/>
<path opacity="0.1" d="M104.76 618.21C105.276 618.959 105.683 619.777 105.969 620.64C116.349 632.84 121.889 644.23 111.899 644.51C102.609 644.78 91.4495 661.41 88.7795 665.6C88.8633 665.94 88.9703 666.274 89.0995 666.6C89.0995 666.6 102.17 644.86 112.82 644.55C123.47 644.24 116.42 631.28 104.76 618.21Z" fill="black"/>
<path d="M115.78 628.09C115.78 630.82 115.48 633.03 115.1 633.03C114.72 633.03 114.41 630.82 114.41 628.09C114.41 625.36 114.8 626.65 115.17 626.65C115.54 626.65 115.78 625.36 115.78 628.09Z" fill="#FFD037"/>
<path d="M119.56 631.35C117.17 632.65 115.08 633.44 114.9 633.11C114.72 632.78 116.51 631.45 118.9 630.11C121.29 628.77 120.35 629.75 120.53 630.11C120.71 630.47 121.96 630.04 119.56 631.35Z" fill="#FFD037"/>
<path opacity="0.1" d="M89.0898 725.88C54.8482 725.88 27.0898 721.622 27.0898 716.37C27.0898 711.118 54.8482 706.86 89.0898 706.86C123.331 706.86 151.09 711.118 151.09 716.37C151.09 721.622 123.331 725.88 89.0898 725.88Z" fill="#03A9F4"/>
<path d="M57.1803 656.11L57.4803 658.53L57.9002 661.95L58.0703 663.38L58.4902 666.8L58.6703 668.23L59.0803 671.64L63.8303 710.54C64.2503 714.01 69.9202 716.72 76.7702 716.72H101.42C108.27 716.72 113.93 714.01 114.36 710.54L119.11 671.64L119.53 668.23L119.7 666.8L120.12 663.38L120.3 661.95L120.71 658.53L121.01 656.11C121.24 654.11 118.18 652.49 114.3 652.49H63.8802C60.0102 652.49 56.9403 654.14 57.1803 656.11Z" fill="#65617D"/>
<path d="M57.48 658.53L57.89 661.95H120.29L120.71 658.53H57.48Z" fill="#9D9CB5"/>
<path d="M58.0701 663.38L58.4801 666.8H119.7L120.12 663.38H58.0701Z" fill="#9D9CB5"/>
<path d="M58.6595 668.23L59.0795 671.65H119.11L119.52 668.23H58.6595Z" fill="#9D9CB5"/>
<path d="M898.627 688.206C899.206 690.682 901.683 692.22 904.159 691.64L936.97 683.966C939.446 683.387 940.983 680.91 940.404 678.434C939.825 675.958 937.348 674.42 934.872 674.999L902.062 682.674C899.586 683.253 898.048 685.73 898.627 688.206Z" fill="#038CCA"/>
<path d="M908.418 662.161C907.079 664.321 907.743 667.159 909.901 668.501L933.764 683.343C935.921 684.685 938.755 684.022 940.094 681.862C941.433 679.703 940.769 676.864 938.611 675.522L914.748 660.68C912.59 659.339 909.756 660.001 908.418 662.161Z" fill="#038CCA"/>
<path d="M909.91 668.494C912.068 669.836 914.902 669.173 916.24 667.013L931.134 642.982C932.473 640.822 931.809 637.984 929.651 636.642C927.494 635.3 924.66 635.963 923.321 638.123L908.427 662.154C907.089 664.313 907.753 667.152 909.91 668.494Z" fill="#038CCA"/>
<path d="M889.162 673.337C891.319 674.679 894.154 674.016 895.492 671.856L910.395 647.81C911.734 645.65 911.07 642.812 908.912 641.47C906.755 640.128 903.921 640.791 902.582 642.95L887.679 666.997C886.34 669.156 887.004 671.995 889.162 673.337Z" fill="#038CCA"/>
<path d="M868.519 678.118C870.676 679.46 873.51 678.797 874.849 676.638L889.705 652.668C891.044 650.508 890.38 647.669 888.222 646.328C886.065 644.986 883.23 645.649 881.892 647.808L867.036 671.778C865.697 673.938 866.361 676.777 868.519 678.118Z" fill="#038CCA"/>
</g>
<defs>
<linearGradient id="paint0_linear" x1="476.2" y1="501.92" x2="476.2" y2="0.000273476" gradientUnits="userSpaceOnUse">
<stop stop-color="#808080" stop-opacity="0.25"/>
<stop offset="0.54" stop-color="#808080" stop-opacity="0.12"/>
<stop offset="1" stop-color="#808080" stop-opacity="0.1"/>
</linearGradient>
<clipPath id="clip0">
<rect width="1022.84" height="813.16" fill="white" transform="matrix(-1 0 0 1 1022.84 0)"/>
</clipPath>
</defs>
</svg>
